<svg width="55" height="31" viewBox="0 0 55 31" fill="none" xmlns="http://www.w3.org/2000/svg">
<path d="M54.9957 11.5165C55.0015 11.4748 55.0015 11.4326 54.9957 11.3909C55.0011 11.3569 55.0011 11.3223 54.9957 11.2882L54.5883 8.35558C54.5295 8.00472 54.3723 7.67679 54.1344 7.40846L54.0645 7.32858L53.9365 7.20305L46.8829 1.24648L47.0808 1.44048C46.9189 1.2506 46.7157 1.09872 46.4861 0.996024C46.2565 0.893332 46.0062 0.842439 45.7539 0.8471H43.6122C43.2639 0.840335 42.9236 0.948887 42.6461 1.1552C42.3547 0.95013 42.0038 0.842133 41.6451 0.8471H39.5034C39.2225 0.842632 38.9454 0.910975 38.7001 1.04523C38.4549 1.17948 38.2501 1.37488 38.1067 1.61164C37.8855 1.94979 37.8023 2.35721 37.8738 2.75275L38.1416 4.60133C37.9642 4.50277 37.7635 4.45162 37.5596 4.453H27.1887C26.8166 4.45529 26.4531 4.56221 26.1411 4.76109C25.8395 4.9462 25.5973 5.21127 25.4428 5.52562L24.6396 4.85238C24.3235 4.56565 23.9063 4.41023 23.4757 4.41877H7.20353C6.83012 4.42543 6.46501 4.5277 6.14436 4.71545C5.70569 4.96717 5.38421 5.37645 5.24809 5.85655L0.0801167 22.802C-0.0164452 23.0812 -0.0259442 23.3824 0.0528362 23.6669C0.131617 23.9514 0.295109 24.2065 0.522426 24.3996C0.581658 24.4488 0.643851 24.4945 0.708664 24.5365C0.708664 24.5365 0.603891 24.468 0.545692 24.411L7.59931 30.379C7.89769 30.6483 8.28781 30.7988 8.69336 30.8011H25.0936C25.4681 30.7916 25.8335 30.6853 26.1528 30.493C26.3334 30.3963 26.495 30.2688 26.63 30.1165L26.6882 30.0366L26.7813 29.9225L26.8512 29.797L27.6194 30.4474C27.9135 30.706 28.2951 30.8483 28.6902 30.8468H45.1253C45.4994 30.8346 45.8641 30.7285 46.1845 30.5387C46.361 30.436 46.5217 30.3092 46.6618 30.1621L46.7199 30.0823L46.813 29.9682C46.8625 29.896 46.9055 29.8196 46.941 29.7399C46.9791 29.6707 47.0103 29.5981 47.0342 29.5231L51.7482 14.0497V13.9128C51.754 13.8597 51.754 13.8061 51.7482 13.753V13.6504C51.7539 13.6163 51.7539 13.5817 51.7482 13.5476C51.7535 13.4755 51.7535 13.403 51.7482 13.3308H53.2614C53.393 13.3426 53.5255 13.3426 53.6571 13.3308H53.7619C53.8471 13.3059 53.9291 13.2714 54.0063 13.2281H54.1227L54.3322 13.0684L54.4253 12.9999L54.5883 12.7945V12.7261L54.7047 12.532C54.6982 12.4943 54.6982 12.4557 54.7047 12.418C54.6985 12.3994 54.6985 12.3794 54.7047 12.3609C54.7294 12.294 54.7489 12.2253 54.7629 12.1555C54.7575 12.133 54.7575 12.1095 54.7629 12.087C54.7572 12.053 54.7572 12.0183 54.7629 11.9843C54.7629 11.9843 54.9957 11.5393 54.9957 11.5165Z" fill="black"/>
</svg>
