<svg width="9" height="10" viewBox="0 0 9 10" fill="none" xmlns="http://www.w3.org/2000/svg">
<path d="M7.24875 1.09433C7.06599 1.00865 6.86389 0.967983 6.66072 0.975958C6.45748 0.983999 6.25954 1.04042 6.08476 1.14027C5.91107 1.2394 5.76563 1.3782 5.66143 1.54436C5.56588 1.68428 5.49975 1.84075 5.46678 2.00506C5.43382 2.16924 5.43462 2.33797 5.46907 2.50175C5.50311 2.71227 5.54084 2.91698 5.5781 3.11886C5.63981 3.45295 5.69983 3.77953 5.73945 4.11251L5.74093 4.12094C5.8311 4.64314 5.8783 5.17127 5.88253 5.70052L5.88293 5.70803C5.91375 6.2796 5.71085 6.84002 5.31773 7.27041L5.31148 7.27805C5.18357 7.43538 5.01256 7.55546 4.81751 7.62487C4.62253 7.69427 4.4113 7.71022 4.20738 7.67094C4.00347 7.63166 3.815 7.53872 3.66299 7.40249C3.51098 7.26626 3.40133 7.0916 3.34661 6.89908C3.22978 6.49327 3.16217 6.07587 3.14498 5.65524L3.34453 2.60609C3.34749 2.56628 3.35084 2.52541 3.35427 2.48416C3.36185 2.39155 3.36964 2.29724 3.37286 2.20925C3.37756 2.0798 3.37354 1.94667 3.34211 1.82065C3.30995 1.69186 3.24879 1.56934 3.14028 1.465C3.03285 1.36172 2.88783 1.28553 2.70533 1.23366C2.37532 1.14198 2.09628 1.14488 1.86376 1.23959C1.63111 1.33431 1.47171 1.51015 1.35891 1.71328C1.24699 1.9147 1.17508 2.15316 1.12069 2.39202C1.08034 2.56924 1.04791 2.75531 1.01709 2.9324C1.00642 2.99343 0.996008 3.05335 0.985467 3.11154L0.985198 3.11326C0.820295 4.08449 0.771214 5.07063 0.838894 6.05254C0.851517 6.58317 0.966801 7.10695 1.17897 7.59712C1.41834 8.22958 1.85188 8.77755 2.42239 9.16872C2.99411 9.56068 3.67635 9.77667 4.3788 9.78807C5.08125 9.79947 5.77074 9.60576 6.35596 9.23265C6.94023 8.86007 7.39304 8.32607 7.6545 7.70132C8.02022 6.90547 8.19198 6.03995 8.15652 5.17074C8.13504 4.53617 8.09905 3.89672 8.06326 3.2605C8.04567 2.94842 8.02815 2.637 8.01244 2.32749C8.00451 2.01712 7.89789 1.71651 7.7068 1.46599C7.58856 1.30761 7.43118 1.17988 7.24875 1.09433Z" fill="#3A3B7B"/>
</svg>
